<?xml version="1.0" standalone="no"?>
<!DOCTYPE svg PUBLIC "-//W3C//DTD SVG 20010904//EN"
 "http://www.w3.org/TR/2001/REC-SVG-20010904/DTD/svg10.dtd">
<svg version="1.0" xmlns="http://www.w3.org/2000/svg"
 width="920.000000pt" height="920.000000pt" viewBox="0 0 920.000000 920.000000"
 preserveAspectRatio="xMidYMid meet">
<metadata>
Created by potrace 1.14, written by Peter Selinger 2001-2017
</metadata>
<g transform="translate(0.000000,920.000000) scale(0.100000,-0.100000)"
fill="#000000" stroke="none">
<path d="M3156 8003 c-3 -3 -29 -7 -58 -9 -112 -8 -201 -21 -353 -50 -81 -16
-174 -39 -300 -76 -38 -11 -79 -22 -90 -25 -11 -2 -29 -8 -40 -13 -11 -4 -36
-13 -55 -20 -19 -7 -49 -19 -67 -26 -17 -8 -34 -14 -37 -14 -3 0 -30 -11 -60
-25 -30 -14 -57 -25 -61 -25 -11 0 -287 -140 -315 -160 -15 -11 -31 -20 -35
-20 -10 0 -170 -103 -173 -112 -2 -5 -8 -8 -13 -8 -10 0 -174 -119 -235 -169
-109 -92 -160 -139 -263 -241 -113 -113 -150 -153 -221 -240 -19 -24 -41 -49
-47 -56 -7 -7 -13 -15 -13 -18 0 -5 -8 -16 -53 -68 -9 -12 -17 -25 -17 -29 0
-5 -8 -16 -18 -26 -46 -46 -184 -276 -276 -460 -66 -132 -176 -398 -176 -425
0 -8 -3 -18 -8 -22 -4 -4 -7 -11 -8 -14 0 -4 -8 -34 -18 -67 -19 -61 -42 -150
-52 -195 -2 -14 -8 -34 -11 -45 -8 -22 -11 -36 -17 -80 -3 -16 -10 -55 -16
-85 -5 -30 -12 -75 -15 -99 -2 -24 -7 -51 -9 -60 -20 -67 -29 -583 -13 -721 4
-36 9 -83 11 -105 5 -58 15 -116 38 -235 25 -131 22 -117 52 -230 15 -52 28
-104 31 -114 2 -10 10 -35 17 -55 7 -20 13 -38 13 -41 1 -3 4 -12 8 -20 3 -8
13 -37 23 -65 51 -146 224 -516 245 -523 5 -2 9 -8 9 -14 0 -21 175 -288 215
-329 8 -9 15 -19 15 -23 0 -6 70 -96 90 -116 3 -3 32 -36 65 -75 122 -142 330
-338 460 -435 33 -25 67 -51 75 -59 21 -20 283 -191 350 -229 136 -75 335
-168 470 -219 120 -45 333 -111 410 -127 14 -3 57 -13 95 -21 39 -9 83 -18 98
-20 16 -2 40 -6 55 -9 60 -12 109 -18 247 -33 78 -8 533 -8 610 1 140 14 177
19 240 30 17 3 44 7 60 10 17 2 82 16 145 31 63 14 126 28 140 31 14 2 34 9
45 14 16 8 62 21 120 36 32 8 230 83 300 114 11 4 35 14 53 22 17 7 32 16 32
20 0 5 7 8 15 8 16 0 145 65 255 129 30 17 65 37 78 43 12 6 22 15 22 20 0 4
5 8 11 8 10 0 227 145 239 159 3 4 25 22 50 41 197 150 541 505 636 655 10 17
21 32 25 35 10 8 123 181 154 235 16 28 32 52 35 55 3 3 14 23 24 45 11 22 22
42 25 45 7 5 100 200 126 265 9 22 23 54 30 70 7 17 18 44 25 60 15 37 70 203
75 228 2 9 7 22 10 27 3 5 8 18 10 28 1 9 8 37 15 62 7 25 14 53 16 62 2 10 6
27 9 38 3 11 7 30 10 43 2 12 8 36 11 52 4 17 8 41 10 55 1 14 7 52 13 85 19
115 21 130 26 185 21 230 21 531 -1 710 -2 19 -6 54 -8 77 -3 22 -10 70 -16
105 -6 34 -13 73 -15 86 -2 12 -6 30 -9 40 -3 9 -7 34 -11 56 -3 21 -8 43 -11
48 -3 5 -7 19 -9 31 -5 39 -44 176 -55 197 -6 11 -8 20 -5 20 2 0 -5 26 -16
58 -35 97 -61 166 -74 197 -7 17 -25 58 -39 92 -24 59 -75 165 -98 207 -85
156 -113 204 -181 306 -39 58 -74 107 -79 108 -4 2 -8 8 -8 14 0 5 -17 31 -37
56 -21 26 -41 51 -46 57 -4 5 -17 21 -28 35 -12 14 -35 43 -52 64 -49 62 -295
307 -367 367 -36 30 -67 57 -70 60 -23 26 -287 214 -372 264 -205 121 -355
195 -533 265 -60 23 -119 46 -130 51 -33 13 -175 56 -245 74 -62 16 -78 20
-125 30 -11 3 -30 7 -42 10 -13 3 -31 7 -42 9 -10 2 -36 7 -57 11 -22 3 -52 8
-69 11 -37 7 -84 13 -150 19 -27 3 -63 8 -80 11 -37 8 -562 14 -569 7z m391
-1478 c15 -3 42 -8 58 -10 17 -3 48 -11 70 -17 22 -5 45 -11 50 -12 58 -11
287 -110 293 -127 2 -5 8 -9 14 -9 16 0 158 -101 158 -113 0 -6 2 -8 5 -5 7 7
129 -112 181 -177 67 -82 119 -165 161 -255 38 -81 77 -183 78 -205 0 -5 3
-14 6 -20 12 -19 20 -65 38 -195 10 -79 11 -1525 1 -1583 -4 -23 -10 -62 -13
-87 -22 -182 -138 -435 -275 -600 -60 -72 -167 -175 -217 -208 -22 -15 -49
-35 -61 -45 -66 -56 -308 -165 -405 -182 -18 -3 -35 -8 -38 -10 -4 -2 -27 -6
-51 -10 -25 -3 -60 -10 -78 -15 -19 -5 -30 -5 -27 1 4 5 -3 6 -17 1 -13 -5
-72 -7 -133 -5 -161 5 -185 7 -185 16 0 5 -3 6 -7 4 -13 -8 -122 18 -218 51
-77 27 -143 57 -230 106 -125 71 -294 222 -375 336 -14 19 -33 43 -43 54 -9
11 -17 26 -17 33 0 7 -3 13 -7 13 -5 0 -13 10 -19 23 -6 12 -27 54 -47 92 -34
68 -88 218 -101 280 -14 73 -17 93 -23 145 -9 70 -7 1526 1 1600 7 61 8 67 30
160 71 298 256 566 522 756 34 24 64 44 67 44 4 0 28 13 54 28 62 37 185 87
259 107 102 28 130 33 214 41 36 4 66 8 68 9 5 5 228 -4 259 -10z"/>
<path d="M8028 3295 c-2 -2 -19 -5 -38 -8 -175 -25 -373 -112 -505 -221 -121
-100 -214 -214 -281 -346 -15 -30 -28 -57 -29 -60 0 -3 -3 -9 -6 -15 -8 -12
-38 -103 -44 -133 -3 -12 -8 -32 -11 -44 -25 -104 -29 -284 -7 -408 20 -119
77 -271 133 -355 15 -22 29 -48 33 -57 4 -10 11 -18 17 -18 5 0 10 -6 10 -13
0 -21 144 -165 235 -235 50 -38 171 -100 258 -131 57 -21 87 -29 167 -46 48
-11 330 -14 356 -5 11 5 36 11 55 14 101 16 256 84 369 160 93 64 260 227 260
255 0 5 4 11 8 13 26 11 123 206 148 298 35 130 38 152 37 305 0 88 -2 169 -6
180 -3 11 -10 40 -16 65 -23 100 -113 310 -133 310 -4 0 -8 5 -8 12 0 17 -73
111 -133 171 -111 111 -202 172 -357 239 -64 27 -90 36 -137 44 -16 3 -41 9
-58 14 -16 5 -39 10 -50 10 -11 0 -75 2 -142 4 -67 2 -124 2 -125 1z"/>
</g>
</svg>
